<svg width="191" height="84" viewBox="0 0 191 84" fill="none" xmlns="http://www.w3.org/2000/svg">
<path d="M2.47778 50.3978C9.1389 49.74 14.175 49.4112 17.5862 49.4112C20.9973 49.4112 23.6967 49.6595 25.6843 50.1562C27.6853 50.6529 29.3304 51.4247 30.6197 52.4717C33.1177 54.512 34.3666 57.8611 34.3666 62.519C34.3666 64.613 33.9704 66.5326 33.1781 68.2776C32.3857 70.0226 31.3046 71.5193 29.9347 72.7677C28.565 74.0161 26.9601 74.9893 25.1203 75.6873C23.2804 76.385 21.3129 76.734 19.2179 76.734L15.6321 76.6538V82.4727H2.47778V50.3978ZM20.628 57.7672C19.4731 57.7672 17.7809 58.5659 15.5516 60.1633V67.7541L17.9085 66.6064C19.4663 65.8413 20.5541 65.1097 21.1719 64.4117C22.3268 63.1097 22.9043 61.8143 22.9043 60.5257C22.9043 59.237 22.4679 58.3847 21.5949 57.9685C21.3129 57.8343 20.9906 57.7672 20.628 57.7672ZM40.5107 80.2582C39.4363 79.251 38.5768 77.9894 37.9321 76.4729C37.3009 74.9423 36.9854 73.298 36.9854 71.5395C36.9854 69.781 37.16 68.2575 37.5091 66.9689C38.2075 64.405 39.4296 62.2506 41.1754 60.5055C42.0081 59.6464 42.9347 58.9216 43.9554 58.3309C46.0504 57.1094 48.2596 56.4986 50.5829 56.4986C52.9197 56.4986 54.9678 57.2705 56.727 58.8142C57.2911 59.3108 57.7813 59.8813 58.1976 60.5257L61.0782 57.445H67.6857V82.4727H61.0782L58.1976 78.3048C55.9951 81.5533 52.6578 83.1845 48.1857 83.1974C46.9502 83.2112 45.6274 82.9691 44.2173 82.4727C42.8206 81.9894 41.5851 81.2509 40.5107 80.2582ZM56.8277 65.0359C56.3442 64.754 55.7668 64.613 55.0953 64.613C54.4239 64.613 53.712 64.8547 52.96 65.3379C52.2213 65.8078 51.5566 66.4051 50.9657 67.1299C49.6495 68.7542 48.9915 70.4052 48.9915 72.0831C48.9915 73.2644 49.3541 74.0966 50.0793 74.5799C50.7508 75.0228 51.7715 74.9624 53.1413 74.3987C54.5246 73.8214 55.7534 73.0764 56.8277 72.1637V65.0359ZM91.4363 80.6606C88.8845 82.3926 86.1785 83.2578 83.318 83.2578C80.4706 83.2578 78.1542 82.4529 76.3679 80.8416C74.5818 79.2174 73.6887 77.0364 73.6887 74.2979V63.8278H71.3922V57.445H73.6887V50.6797L85.7353 49.4514V57.445H91.4363V63.8278H85.7353V70.1502C85.7353 72.0428 86.1578 73.4188 87.0043 74.2779C87.8638 75.1235 89.3406 75.5463 91.4363 75.5463V80.6606ZM101.347 45.8473C103.321 45.8473 104.785 46.2634 105.738 47.0957C106.692 47.9145 107.162 48.9615 107.149 50.2367C107.149 51.5119 106.538 52.6864 105.316 53.7603C104.107 54.8341 102.488 55.3711 100.461 55.3711C97.614 55.3711 95.8408 54.512 95.1425 52.7939C94.9415 52.3106 94.8407 51.7736 94.8407 51.183C94.8407 50.5924 94.9813 49.975 95.2632 49.3306C95.5459 48.6863 95.9683 48.1091 96.5329 47.599C97.7813 46.4312 99.3865 45.8473 101.347 45.8473ZM106.806 82.4727H95.1425V57.445H106.806V82.4727ZM130.637 80.6606C128.085 82.3926 125.379 83.2578 122.519 83.2578C119.672 83.2578 117.355 82.4529 115.57 80.8416C113.783 79.2174 112.89 77.0364 112.89 74.2979V63.8278H110.594V57.445H112.89V50.6797L124.936 49.4514V57.445H130.637V63.8278H124.936V70.1502C124.936 72.0428 125.359 73.4188 126.205 74.2779C127.065 75.1235 128.542 75.5463 130.637 75.5463V80.6606ZM137.123 80.2582C136.049 79.251 135.19 77.9894 134.545 76.4729C133.914 74.9423 133.598 73.298 133.598 71.5395C133.598 69.781 133.773 68.2575 134.122 66.9689C134.821 64.405 136.042 62.2506 137.789 60.5055C138.621 59.6464 139.548 58.9216 140.568 58.3309C142.663 57.1094 144.873 56.4986 147.196 56.4986C149.533 56.4986 151.581 57.2705 153.34 58.8142C153.904 59.3108 154.394 59.8813 154.811 60.5257L157.691 57.445H164.299V82.4727H157.691L154.811 78.3048C152.608 81.5533 149.271 83.1845 144.799 83.1974C143.563 83.2112 142.241 82.9691 140.83 82.4727C139.434 81.9894 138.198 81.2509 137.123 80.2582ZM153.441 65.0359C152.957 64.754 152.38 64.613 151.708 64.613C151.037 64.613 150.325 64.8547 149.573 65.3379C148.835 65.8078 148.169 66.4051 147.579 67.1299C146.262 68.7542 145.605 70.4052 145.605 72.0831C145.605 73.2644 145.968 74.0966 146.693 74.5799C147.364 75.0228 148.385 74.9624 149.755 74.3987C151.138 73.8214 152.367 73.0764 153.441 72.1637V65.0359ZM187.626 64.9553C184.645 64.2573 182.476 63.9084 181.119 63.9084C180.73 63.9084 180.428 63.9956 180.213 64.1701C180.011 64.3446 179.911 64.5392 179.911 64.754C179.911 65.197 180.461 65.6466 181.562 66.1031C182.677 66.546 183.698 66.9822 184.624 67.4118C185.551 67.8413 186.35 68.3649 187.022 68.9823C188.472 70.3247 189.198 72.3247 189.198 74.9825C189.198 77.6267 188.237 79.6603 186.317 81.0837C184.396 82.5063 181.798 83.2181 178.521 83.2181C175.244 83.2181 172.625 82.9157 170.665 82.3116C169.805 82.0566 169.147 81.7549 168.69 81.4059V73.9355C168.878 73.949 169.208 74.0362 169.678 74.1973C170.147 74.3583 170.927 74.6134 172.014 74.9624C173.102 75.298 174.089 75.4658 174.975 75.4658C175.875 75.4658 176.325 75.137 176.325 74.4792C176.325 73.9691 175.922 73.4725 175.116 72.9892C174.754 72.7744 174.344 72.553 173.888 72.3247C171.994 71.3985 170.638 70.3314 169.818 69.1233C169.013 67.9017 168.609 66.4722 168.609 64.8345C168.609 61.9217 169.791 59.7471 172.155 58.3108C174.143 57.1027 176.741 56.4986 179.951 56.4986C182.194 56.4986 184.443 56.7202 186.699 57.1631C187.183 57.2571 187.492 57.3242 187.626 57.3645V64.9553Z" fill="#5482F6"/>
<path d="M16.6752 37.4182H2.75311V1.68985H16.6752V37.4182ZM37.1779 17.1714C35.9841 17.1714 35.3873 18.1334 35.3873 20.0574V37.4182H22.0919V9.6096H29.4334L32.6341 13.9498C33.8279 12.2942 35.4767 10.9818 37.5808 10.0123C39.6997 9.04283 41.6768 8.55808 43.5122 8.55808C46.8846 8.55808 49.5556 9.45298 51.5253 11.2428C53.5099 13.0325 54.5022 15.4338 54.5022 18.4466V37.4182H41.1173V23.9949C41.1173 19.4459 39.8041 17.1714 37.1779 17.1714ZM80.3094 17.9544C76.9967 17.1788 74.5871 16.7911 73.0799 16.7911C72.6472 16.7911 72.3114 16.888 72.0727 17.0819C71.8489 17.2758 71.737 17.492 71.737 17.7307C71.737 18.2229 72.3488 18.7225 73.5723 19.2296C74.8108 19.7218 75.9449 20.2065 76.9746 20.6838C78.0044 21.1611 78.8922 21.7428 79.6379 22.4288C81.2499 23.9203 82.0552 26.1426 82.0552 29.0958C82.0552 32.0339 80.9886 34.2935 78.8548 35.8745C76.7209 37.4555 73.8334 38.246 70.1925 38.246C66.5516 38.246 63.6418 37.9104 61.4632 37.2392C60.5082 36.9558 59.7771 36.6203 59.2697 36.2325V27.9324C59.4786 27.9473 59.8442 28.0442 60.3665 28.2232C60.8888 28.4022 61.7542 28.6856 62.9629 29.0734C64.1715 29.4462 65.2683 29.6327 66.2532 29.6327C67.2529 29.6327 67.7528 29.2673 67.7528 28.5364C67.7528 27.9697 67.3051 27.4178 66.4098 26.8809C66.007 26.6423 65.5518 26.3962 65.0445 26.1426C62.9405 25.1135 61.4334 23.9278 60.5232 22.5855C59.6279 21.2282 59.1802 19.6398 59.1802 17.8201C59.1802 14.5837 60.4933 12.1675 63.1196 10.5716C65.328 9.22924 68.2154 8.55808 71.7817 8.55808C74.2737 8.55808 76.7729 8.8042 79.2803 9.29636C79.8174 9.40075 80.1604 9.47536 80.3094 9.52011V17.9544ZM107.684 35.4047C104.848 37.3287 101.842 38.2907 98.6638 38.2907C95.5 38.2907 92.9261 37.3958 90.9412 35.6061C88.9571 33.8014 87.9647 31.3777 87.9647 28.3351V16.7016H85.4129V9.6096H87.9647V2.09254L101.349 0.727844V9.6096H107.684V16.7016H101.349V23.7264C101.349 25.8294 101.819 27.3582 102.76 28.3127C103.715 29.2523 105.356 29.7222 107.684 29.7222V35.4047ZM114.891 34.9572C113.697 33.8386 112.742 32.4367 112.026 30.7513C111.325 29.051 110.974 27.2239 110.974 25.2701C110.974 23.3163 111.168 21.6234 111.556 20.1916C112.332 17.3429 113.69 14.9491 115.63 13.0102C116.555 12.0556 117.584 11.2502 118.719 10.5939C121.047 9.23672 123.501 8.55808 126.082 8.55808C128.679 8.55808 130.954 9.41572 132.909 11.1309C133.536 11.6827 134.081 12.3166 134.544 13.0325L137.744 9.6096H145.085V37.4182H137.744L134.544 32.7871C132.096 36.3965 128.388 38.2087 123.419 38.2236C122.046 38.2385 120.576 37.9701 119.009 37.4182C117.457 36.8813 116.084 36.061 114.891 34.9572ZM133.021 18.0439C132.484 17.7307 131.842 17.5741 131.096 17.5741C130.35 17.5741 129.559 17.8425 128.723 18.3795C127.903 18.9015 127.164 19.5652 126.508 20.3706C125.045 22.1753 124.314 24.0098 124.314 25.8741C124.314 27.1867 124.717 28.1114 125.523 28.6483C126.269 29.1405 127.403 29.0734 128.925 28.447C130.462 27.8056 131.827 26.9778 133.021 25.9636V18.0439Z" fill="#5482F6"/>
<path d="M157.575 17.9455C160.212 17.9455 162.35 15.8087 162.35 13.1728C162.35 10.5368 160.212 8.40002 157.575 8.40002C154.938 8.40002 152.8 10.5368 152.8 13.1728C152.8 15.8087 154.938 17.9455 157.575 17.9455Z" fill="#23C197"/>
<path d="M166.17 10.3091C168.807 10.3091 170.945 8.17226 170.945 5.53634C170.945 2.90043 168.807 0.763611 166.17 0.763611C163.533 0.763611 161.395 2.90043 161.395 5.53634C161.395 8.17226 163.533 10.3091 166.17 10.3091Z" fill="#23C197"/>
<path d="M177.63 10.3091C180.267 10.3091 182.405 8.17226 182.405 5.53634C182.405 2.90043 180.267 0.763611 177.63 0.763611C174.993 0.763611 172.855 2.90043 172.855 5.53634C172.855 8.17226 174.993 10.3091 177.63 10.3091Z" fill="#23C197"/>
<path d="M186.225 17.9455C188.862 17.9455 191 15.8087 191 13.1728C191 10.5368 188.862 8.40002 186.225 8.40002C183.588 8.40002 181.45 10.5368 181.45 13.1728C181.45 15.8087 183.588 17.9455 186.225 17.9455Z" fill="#23C197"/>
<path d="M182.099 23.4054C180.438 21.4581 179.043 19.7972 177.363 17.85C176.484 16.8191 175.357 15.7882 174.02 15.33C173.81 15.2536 173.6 15.1963 173.39 15.1582C172.912 15.0818 172.397 15.0818 171.9 15.0818C171.403 15.0818 170.888 15.0818 170.391 15.1772C170.181 15.2154 169.971 15.2727 169.761 15.3491C168.424 15.8072 167.316 16.8382 166.418 17.8691C164.757 19.8163 163.362 21.4772 161.682 23.4245C159.179 25.9254 156.104 28.6936 156.677 32.5691C157.231 34.5163 158.626 36.4445 161.128 36.9981C162.522 37.2845 166.972 36.1581 171.709 36.1581H172.053C176.79 36.1581 181.24 37.2654 182.634 36.9981C185.136 36.4445 186.531 34.4972 187.085 32.5691C187.677 28.6745 184.602 25.9063 182.099 23.4054Z" fill="#23C197"/>
</svg>
