<svg width="383" height="169" viewBox="0 0 383 169" fill="none" xmlns="http://www.w3.org/2000/svg">
<g clip-path="url(#clip0_675_318)">
<path d="M4.96851 101.396C18.3256 100.072 28.4243 99.4106 35.2645 99.4106C42.1046 99.4106 47.5174 99.9102 51.5031 100.909C55.5155 101.909 58.8144 103.461 61.3996 105.568C66.4087 109.673 68.913 116.411 68.913 125.782C68.913 129.995 68.1187 133.857 66.5298 137.368C64.9408 140.879 62.7731 143.89 60.0262 146.402C57.2795 148.913 54.0614 150.871 50.372 152.276C46.6826 153.679 42.7374 154.382 38.5364 154.382L31.3461 154.22V165.927H4.96851V101.396ZM41.364 116.222C39.0481 116.222 35.6548 117.829 31.1846 121.043V136.315L35.9107 134.006C39.0346 132.466 41.2158 130.995 42.4546 129.59C44.7705 126.971 45.9286 124.364 45.9286 121.772C45.9286 119.179 45.0533 117.464 43.3029 116.627C42.7374 116.357 42.0911 116.222 41.364 116.222ZM81.2334 161.472C79.0791 159.445 77.3556 156.907 76.0629 153.856C74.7971 150.777 74.1644 147.468 74.1644 143.931C74.1644 140.393 74.5145 137.328 75.2146 134.735C76.615 129.577 79.0656 125.242 82.5664 121.731C84.2361 120.003 86.0942 118.545 88.1408 117.356C92.3419 114.899 96.7718 113.67 101.431 113.67C106.116 113.67 110.223 115.223 113.751 118.329C114.882 119.328 115.865 120.476 116.7 121.772L122.476 115.574H135.726V165.927H122.476L116.7 157.542C112.283 164.077 105.591 167.359 96.6237 167.385C94.1461 167.413 91.4936 166.926 88.666 165.927C85.8654 164.955 83.3878 163.469 81.2334 161.472ZM113.953 130.846C112.983 130.279 111.826 129.995 110.479 129.995C109.133 129.995 107.705 130.481 106.197 131.454C104.716 132.399 103.383 133.601 102.198 135.059C99.559 138.327 98.2395 141.649 98.2395 145.024C98.2395 147.401 98.9666 149.075 100.421 150.048C101.767 150.939 103.814 150.817 106.561 149.683C109.335 148.522 111.799 147.023 113.953 145.186V130.846ZM183.351 162.281C178.234 165.766 172.808 167.507 167.072 167.507C161.362 167.507 156.717 165.887 153.136 162.646C149.554 159.378 147.763 154.99 147.763 149.48V128.415H143.158V115.574H147.763V101.963L171.919 99.4915V115.574H183.351V128.415H171.919V141.135C171.919 144.943 172.767 147.712 174.464 149.44C176.188 151.141 179.149 151.992 183.351 151.992V162.281ZM203.224 92.2404C207.183 92.2404 210.118 93.0775 212.03 94.752C213.942 96.3993 214.886 98.5058 214.858 101.071C214.858 103.637 213.633 106 211.183 108.161C208.759 110.321 205.513 111.401 201.447 111.401C195.739 111.401 192.183 109.673 190.783 106.216C190.38 105.244 190.178 104.164 190.178 102.975C190.178 101.787 190.46 100.545 191.025 99.2485C191.592 97.9523 192.439 96.7909 193.571 95.7646C196.075 93.4151 199.293 92.2404 203.224 92.2404ZM214.172 165.927H190.783V115.574H214.172V165.927ZM261.958 162.281C256.841 165.766 251.415 167.507 245.679 167.507C239.971 167.507 235.324 165.887 231.744 162.646C228.162 159.378 226.371 154.99 226.371 149.48V128.415H221.766V115.574H226.371V101.963L250.526 99.4915V115.574H261.958V128.415H250.526V141.135C250.526 144.943 251.375 147.712 253.071 149.44C254.795 151.141 257.757 151.992 261.958 151.992V162.281ZM274.965 161.472C272.811 159.445 271.087 156.907 269.794 153.856C268.529 150.777 267.896 147.468 267.896 143.931C267.896 140.393 268.247 137.328 268.947 134.735C270.347 129.577 272.797 125.242 276.299 121.731C277.968 120.003 279.826 118.545 281.873 117.356C286.073 114.899 290.504 113.67 295.163 113.67C299.849 113.67 303.955 115.223 307.483 118.329C308.614 119.328 309.597 120.476 310.432 121.772L316.208 115.574H329.458V165.927H316.208L310.432 157.542C306.015 164.077 299.324 167.359 290.355 167.385C287.878 167.413 285.226 166.926 282.398 165.927C279.598 164.955 277.12 163.469 274.965 161.472ZM307.685 130.846C306.716 130.279 305.557 129.995 304.211 129.995C302.864 129.995 301.438 130.481 299.929 131.454C298.449 132.399 297.115 133.601 295.93 135.059C293.291 138.327 291.972 141.649 291.972 145.024C291.972 147.401 292.699 149.075 294.153 150.048C295.5 150.939 297.547 150.817 300.293 149.683C303.066 148.522 305.531 147.023 307.685 145.186V130.846ZM376.235 130.684C370.257 129.28 365.907 128.578 363.187 128.578C362.407 128.578 361.8 128.753 361.37 129.104C360.965 129.455 360.763 129.847 360.763 130.279C360.763 131.17 361.868 132.075 364.075 132.993C366.31 133.884 368.357 134.762 370.215 135.626C372.074 136.49 373.676 137.544 375.023 138.786C377.931 141.486 379.386 145.51 379.386 150.858C379.386 156.178 377.46 160.269 373.609 163.133C369.757 165.995 364.547 167.427 357.976 167.427C351.406 167.427 346.154 166.818 342.223 165.603C340.499 165.09 339.179 164.483 338.264 163.781V148.751C338.641 148.778 339.301 148.954 340.243 149.278C341.186 149.602 342.748 150.115 344.928 150.817C347.11 151.492 349.089 151.83 350.866 151.83C352.671 151.83 353.573 151.168 353.573 149.845C353.573 148.819 352.766 147.82 351.15 146.847C350.422 146.415 349.601 145.97 348.686 145.51C344.888 143.647 342.169 141.5 340.525 139.069C338.911 136.612 338.102 133.736 338.102 130.441C338.102 124.581 340.472 120.205 345.212 117.316C349.198 114.885 354.408 113.67 360.844 113.67C365.342 113.67 369.852 114.116 374.376 115.007C375.346 115.196 375.965 115.331 376.235 115.412V130.684Z" fill="#5482F6"/>
<path d="M315.975 36.1045C321.263 36.1045 325.55 31.8055 325.55 26.5023C325.55 21.199 321.263 16.9 315.975 16.9C310.687 16.9 306.4 21.199 306.4 26.5023C306.4 31.8055 310.687 36.1045 315.975 36.1045Z" fill="#23C197"/>
<path d="M333.21 20.7409C338.498 20.7409 342.785 16.4419 342.785 11.1386C342.785 5.83546 338.498 1.53638 333.21 1.53638C327.922 1.53638 323.635 5.83546 323.635 11.1386C323.635 16.4419 327.922 20.7409 333.21 20.7409Z" fill="#23C197"/>
<path d="M356.19 20.7409C361.478 20.7409 365.765 16.4419 365.765 11.1386C365.765 5.83546 361.478 1.53638 356.19 1.53638C350.902 1.53638 346.615 5.83546 346.615 11.1386C346.615 16.4419 350.902 20.7409 356.19 20.7409Z" fill="#23C197"/>
<path d="M373.425 36.1045C378.713 36.1045 383 31.8055 383 26.5023C383 21.199 378.713 16.9 373.425 16.9C368.137 16.9 363.85 21.199 363.85 26.5023C363.85 31.8055 368.137 36.1045 373.425 36.1045Z" fill="#23C197"/>
<path d="M365.152 47.0895C361.82 43.1718 359.024 39.8302 355.654 35.9125C353.892 33.8384 351.632 31.7643 348.951 30.8425C348.53 30.6889 348.109 30.5736 347.687 30.4968C346.73 30.3432 345.696 30.3432 344.7 30.3432C343.704 30.3432 342.67 30.3432 341.674 30.5352C341.253 30.612 340.832 30.7273 340.41 30.8809C337.729 31.8027 335.508 33.8768 333.708 35.9509C330.376 39.8686 327.58 43.2102 324.21 47.1279C319.192 52.1595 313.026 57.7289 314.175 65.5259C315.286 69.4436 318.082 73.3229 323.099 74.4368C325.895 75.0129 334.819 72.7468 344.317 72.7468H345.006C354.505 72.7468 363.429 74.9745 366.225 74.4368C371.242 73.3229 374.038 69.4052 375.149 65.5259C376.336 57.6904 370.17 52.1211 365.152 47.0895Z" fill="#23C197"/>
</g>
<defs>
<clipPath id="clip0_675_318">
<rect width="383" height="169" fill="white"/>
</clipPath>
</defs>
</svg>
