<svg width="50" height="50" viewBox="0 0 50 50" fill="none" xmlns="http://www.w3.org/2000/svg">
<path d="M47.9167 39.5833C47.9167 40.6884 47.4777 41.7482 46.6963 42.5296C45.9149 43.311 44.8551 43.75 43.75 43.75H6.25001C5.14494 43.75 4.08513 43.311 3.30373 42.5296C2.52233 41.7482 2.08334 40.6884 2.08334 39.5833V16.6667C2.08334 15.5616 2.52233 14.5018 3.30373 13.7204C4.08513 12.939 5.14494 12.5 6.25001 12.5H14.5833L18.75 6.25H31.25L35.4167 12.5H43.75C44.8551 12.5 45.9149 12.939 46.6963 13.7204C47.4777 14.5018 47.9167 15.5616 47.9167 16.6667V39.5833Z" stroke="#23C197" stroke-width="2" stroke-linecap="round" stroke-linejoin="round"/>
<path d="M25 35.4167C29.6024 35.4167 33.3333 31.6857 33.3333 27.0833C33.3333 22.481 29.6024 18.75 25 18.75C20.3976 18.75 16.6667 22.481 16.6667 27.0833C16.6667 31.6857 20.3976 35.4167 25 35.4167Z" stroke="#23C197" stroke-width="2" stroke-linecap="round" stroke-linejoin="round"/>
</svg>
