<svg width="77" height="73" viewBox="0 0 77 73" fill="none" xmlns="http://www.w3.org/2000/svg">
<g clip-path="url(#clip0_2001_20)">
<path fill-rule="evenodd" clip-rule="evenodd" d="M26.81 19.2045C32.0984 19.2045 36.385 14.9055 36.385 9.60229C36.385 4.29907 32.0984 0 26.81 0C21.5215 0 17.235 4.29907 17.235 9.60229C17.235 14.9055 21.5215 19.2045 26.81 19.2045ZM9.575 34.5682C14.8635 34.5682 19.15 30.2692 19.15 24.9659C19.15 19.6627 14.8635 15.3636 9.575 15.3636C4.28653 15.3636 0 19.6627 0 24.9659C0 30.2692 4.28653 34.5682 9.575 34.5682ZM59.365 9.60229C59.365 14.9055 55.0784 19.2045 49.79 19.2045C44.5015 19.2045 40.215 14.9055 40.215 9.60229C40.215 4.29907 44.5015 0 49.79 0C55.0784 0 59.365 4.29907 59.365 9.60229ZM67.0249 34.5682C72.3134 34.5682 76.5999 30.2692 76.5999 24.9659C76.5999 19.6627 72.3134 15.3636 67.0249 15.3636C61.7365 15.3636 57.45 19.6627 57.45 24.9659C57.45 30.2692 61.7365 34.5682 67.0249 34.5682ZM55.3202 41.5041C56.4294 42.8151 57.5562 44.147 58.7522 45.5531C59.0506 45.8524 59.3531 46.1535 59.6578 46.4569C64.477 51.2552 69.8652 56.6201 68.7485 63.9895C67.6378 67.8688 64.8419 71.7866 59.8246 72.9004C58.5379 73.1479 55.9532 72.8096 52.612 72.3723C48.6931 71.8594 43.7335 71.2104 38.6064 71.2104H37.917C32.8331 71.2104 27.9138 71.8596 24.0106 72.3748C20.6213 72.822 17.9982 73.1682 16.6988 72.9004C11.6815 71.7866 8.88559 67.9072 7.77489 63.9895C6.69475 56.6596 12.0796 51.2985 16.8971 46.5021C17.2041 46.1964 17.5089 45.893 17.8095 45.5916C19.9699 43.0803 21.8943 40.8057 23.8752 38.4644C24.9846 37.1531 26.1117 35.8209 27.3079 34.4145C29.108 32.3404 31.3294 30.2663 34.0104 29.3445C34.4317 29.1909 34.853 29.0756 35.2743 28.9988C36.2701 28.8068 37.3042 28.8068 38.3 28.8068C39.2958 28.8068 40.3299 28.8068 41.2874 28.9604C41.7087 29.0372 42.13 29.1525 42.5513 29.3061C45.2323 30.2279 47.492 32.302 49.2538 34.3761C51.4145 36.8877 53.3391 39.1625 55.3202 41.5041Z" fill="#23C197"/>
</g>
<defs>
<clipPath id="clip0_2001_20">
<rect width="77" height="73" fill="white"/>
</clipPath>
</defs>
</svg>
