<svg width="20" height="20" viewBox="0 0 20 20" fill="none" xmlns="http://www.w3.org/2000/svg">
<g clip-path="url(#clip0_900_803)">
<path d="M9.99999 18.3337C14.6024 18.3337 18.3333 14.6027 18.3333 10.0003C18.3333 5.39795 14.6024 1.66699 9.99999 1.66699C5.39762 1.66699 1.66666 5.39795 1.66666 10.0003C1.66666 14.6027 5.39762 18.3337 9.99999 18.3337Z" stroke="#DCDCDE" stroke-width="2" stroke-linecap="round" stroke-linejoin="round"/>
<path d="M7.57501 7.50047C7.77093 6.94353 8.15764 6.4739 8.66664 6.17475C9.17564 5.87561 9.77409 5.76626 10.356 5.86607C10.9379 5.96588 11.4657 6.26841 11.8459 6.72008C12.2261 7.17175 12.4342 7.74341 12.4333 8.33381C12.4333 10.0005 9.93335 10.8338 9.93335 10.8338" stroke="#DCDCDE" stroke-width="2" stroke-linecap="round" stroke-linejoin="round"/>
<path d="M10 14.167H10.0083" stroke="#DCDCDE" stroke-width="2" stroke-linecap="round" stroke-linejoin="round"/>
</g>
<defs>
<clipPath id="clip0_900_803">
<rect width="20" height="20" fill="white"/>
</clipPath>
</defs>
</svg>
