<svg width="214" height="94" viewBox="0 0 214 94" fill="none" xmlns="http://www.w3.org/2000/svg">
<path d="M2.77615 56.3974C10.2394 55.6613 15.882 55.2933 19.7039 55.2933C23.5258 55.2933 26.5502 55.5712 28.7772 56.127C31.0191 56.6828 32.8624 57.5465 34.3069 58.7182C37.1056 61.0014 38.5049 64.7492 38.5049 69.9616C38.5049 72.305 38.0611 74.453 37.1733 76.4057C36.2855 78.3586 35.0743 80.0334 33.5395 81.4304C32.0047 82.8274 30.2066 83.9164 28.1452 84.6976C26.0838 85.4784 23.8794 85.8689 21.5321 85.8689L17.5145 85.7792V92.2908H2.77615V56.3974ZM23.112 64.6441C21.818 64.6441 19.922 65.5379 17.4243 67.3254V75.82L20.065 74.5357C21.8105 73.6794 23.0292 72.8607 23.7214 72.0796C25.0154 70.6226 25.6625 69.173 25.6625 67.731C25.6625 66.289 25.1734 65.3351 24.1954 64.8694C23.8794 64.7192 23.5183 64.6441 23.112 64.6441ZM45.3889 89.8126C44.1852 88.6855 43.2222 87.2738 42.4999 85.5766C41.7927 83.8639 41.4391 82.0238 41.4391 80.0559C41.4391 78.0882 41.6347 76.3833 42.0259 74.9412C42.8084 72.0721 44.1777 69.6612 46.1337 67.7084C47.0667 66.7471 48.1049 65.9359 49.2484 65.2749C51.5957 63.908 54.071 63.2245 56.6741 63.2245C59.2922 63.2245 61.5869 64.0883 63.558 65.8158C64.19 66.3715 64.7392 67.0099 65.2056 67.731L68.4332 64.2836H75.8363V92.2908H68.4332L65.2056 87.6267C62.738 91.2619 58.9988 93.0872 53.9882 93.1018C52.6039 93.1171 51.1218 92.8463 49.5419 92.2908C47.977 91.7499 46.5927 90.9235 45.3889 89.8126ZM63.6708 72.7781C63.1292 72.4627 62.4822 72.3049 61.7299 72.3049C60.9775 72.3049 60.18 72.5753 59.3373 73.1161C58.5098 73.6419 57.7649 74.3103 57.1029 75.1214C55.6283 76.9391 54.891 78.7867 54.891 80.6643C54.891 81.9862 55.2973 82.9175 56.1098 83.4583C56.8621 83.9539 58.0057 83.8864 59.5405 83.2555C61.0903 82.6096 62.4671 81.7759 63.6708 80.7544V72.7781ZM102.447 90.263C99.5879 92.2011 96.556 93.1693 93.3511 93.1693C90.1608 93.1693 87.5654 92.2686 85.5641 90.4655C83.5628 88.6479 82.5622 86.2073 82.5622 83.1428V71.4262H79.9892V64.2836H82.5622V56.7128L96.0595 55.3384V64.2836H102.447V71.4262H96.0595V78.5013C96.0595 80.6192 96.5328 82.159 97.4813 83.1203C98.4443 84.0667 100.099 84.5398 102.447 84.5398V90.263ZM113.551 51.3052C115.763 51.3052 117.403 51.7708 118.471 52.7022C119.54 53.6184 120.067 54.7901 120.051 56.2171C120.051 57.6442 119.367 58.9585 117.998 60.1602C116.644 61.3619 114.83 61.9628 112.558 61.9628C109.369 61.9628 107.382 61.0015 106.599 59.0787C106.374 58.538 106.261 57.937 106.261 57.2761C106.261 56.6152 106.419 55.9243 106.735 55.2032C107.051 54.4822 107.525 53.8363 108.157 53.2654C109.556 51.9586 111.354 51.3052 113.551 51.3052ZM119.668 92.2908H106.599V64.2836H119.668V92.2908ZM146.368 90.263C143.509 92.2011 140.477 93.1693 137.272 93.1693C134.083 93.1693 131.487 92.2686 129.486 90.4655C127.485 88.6479 126.484 86.2073 126.484 83.1428V71.4262H123.911V64.2836H126.484V56.7128L139.981 55.3384V64.2836H146.368V71.4262H139.981V78.5013C139.981 80.6192 140.455 82.159 141.403 83.1203C142.366 84.0667 144.021 84.5398 146.368 84.5398V90.263ZM153.636 89.8126C152.432 88.6855 151.469 87.2738 150.747 85.5766C150.04 83.8639 149.686 82.0238 149.686 80.0559C149.686 78.0882 149.882 76.3833 150.273 74.9412C151.056 72.0721 152.424 69.6612 154.381 67.7084C155.314 66.7471 156.352 65.9359 157.495 65.2749C159.843 63.908 162.318 63.2245 164.921 63.2245C167.54 63.2245 169.834 64.0883 171.805 65.8158C172.437 66.3715 172.986 67.0099 173.453 67.731L176.68 64.2836H184.084V92.2908H176.68L173.453 87.6267C170.985 91.2619 167.246 93.0872 162.235 93.1018C160.851 93.1171 159.369 92.8463 157.789 92.2908C156.224 91.7499 154.84 90.9235 153.636 89.8126ZM171.918 72.7781C171.376 72.4627 170.729 72.3049 169.977 72.3049C169.224 72.3049 168.427 72.5753 167.584 73.1161C166.757 73.6419 166.012 74.3103 165.35 75.1214C163.875 76.9391 163.138 78.7867 163.138 80.6643C163.138 81.9862 163.545 82.9175 164.357 83.4583C165.11 83.9539 166.253 83.8864 167.788 83.2555C169.337 82.6096 170.715 81.7759 171.918 80.7544V72.7781ZM210.22 72.688C206.88 71.9069 204.45 71.5164 202.929 71.5164C202.494 71.5164 202.155 71.614 201.914 71.8092C201.688 72.0045 201.575 72.2223 201.575 72.4627C201.575 72.9584 202.192 73.4616 203.426 73.9723C204.675 74.4681 205.818 74.9562 206.857 75.4369C207.895 75.9175 208.79 76.5034 209.543 77.1944C211.167 78.6965 211.981 80.9347 211.981 83.9089C211.981 86.8679 210.905 89.1435 208.753 90.7364C206.601 92.3284 203.689 93.1248 200.018 93.1248C196.347 93.1248 193.412 92.7864 191.216 92.1105C190.253 91.8251 189.515 91.4875 189.004 91.097V82.7372C189.215 82.7523 189.583 82.8499 190.11 83.0302C190.636 83.2104 191.509 83.4958 192.728 83.8863C193.947 84.2619 195.052 84.4497 196.045 84.4497C197.054 84.4497 197.558 84.0817 197.558 83.3456C197.558 82.7748 197.107 82.219 196.204 81.6783C195.797 81.4379 195.338 81.1901 194.827 80.9347C192.705 79.8982 191.186 78.704 190.267 77.3522C189.365 75.9851 188.913 74.3854 188.913 72.5528C188.913 69.2932 190.237 66.8597 192.886 65.2525C195.113 63.9005 198.024 63.2245 201.621 63.2245C204.134 63.2245 206.654 63.4725 209.182 63.9681C209.723 64.0733 210.069 64.1484 210.22 64.1934V72.688Z" fill="#5482F6"/>
<path d="M176.55 20.0817C179.505 20.0817 181.9 17.6905 181.9 14.7408C181.9 11.7911 179.505 9.3999 176.55 9.3999C173.595 9.3999 171.2 11.7911 171.2 14.7408C171.2 17.6905 173.595 20.0817 176.55 20.0817Z" fill="#23C197"/>
<path d="M186.18 11.5363C189.135 11.5363 191.53 9.14512 191.53 6.1954C191.53 3.2457 189.135 0.854492 186.18 0.854492C183.225 0.854492 180.83 3.2457 180.83 6.1954C180.83 9.14512 183.225 11.5363 186.18 11.5363Z" fill="#23C197"/>
<path d="M199.02 11.5363C201.975 11.5363 204.37 9.14512 204.37 6.1954C204.37 3.2457 201.975 0.854492 199.02 0.854492C196.065 0.854492 193.67 3.2457 193.67 6.1954C193.67 9.14512 196.065 11.5363 199.02 11.5363Z" fill="#23C197"/>
<path d="M208.65 20.0817C211.605 20.0817 214 17.6905 214 14.7408C214 11.7911 211.605 9.3999 208.65 9.3999C205.695 9.3999 203.3 11.7911 203.3 14.7408C203.3 17.6905 205.695 20.0817 208.65 20.0817Z" fill="#23C197"/>
<path d="M204.028 26.1917C202.166 24.0127 200.604 22.154 198.72 19.9749C197.736 18.8213 196.473 17.6677 194.975 17.1549C194.74 17.0695 194.505 17.0054 194.269 16.9627C193.734 16.8772 193.156 16.8772 192.6 16.8772C192.044 16.8772 191.466 16.8772 190.909 16.984C190.674 17.0267 190.439 17.0908 190.203 17.1763C188.705 17.689 187.464 18.8427 186.458 19.9963C184.596 22.1754 183.034 24.034 181.151 26.2131C178.348 29.0117 174.902 32.1095 175.544 36.4463C176.165 38.6254 177.727 40.7831 180.53 41.4027C182.093 41.7231 187.079 40.4627 192.386 40.4627H192.771C198.078 40.4627 203.065 41.7017 204.627 41.4027C207.43 40.7831 208.992 38.604 209.613 36.4463C210.276 32.0881 206.831 28.9904 204.028 26.1917Z" fill="#23C197"/>
</svg>
