<svg width="87" height="39" viewBox="0 0 87 39" fill="none" xmlns="http://www.w3.org/2000/svg">
<path d="M1.12862 23.3989C4.16274 23.0935 6.45669 22.9408 8.01047 22.9408C9.56422 22.9408 10.7938 23.0561 11.6991 23.2867C12.6106 23.5173 13.3599 23.8756 13.9472 24.3617C15.085 25.3091 15.6539 26.864 15.6539 29.0266C15.6539 29.9988 15.4734 30.89 15.1125 31.7002C14.7516 32.5104 14.2592 33.2053 13.6352 33.7849C13.0113 34.3645 12.2803 34.8163 11.4422 35.1404C10.6042 35.4644 9.70798 35.6264 8.7537 35.6264L7.12039 35.5892V38.2908H1.12862V23.3989ZM9.396 26.8204C8.86993 26.8204 8.09914 27.1912 7.08371 27.9328V31.4572L8.15726 30.9243C8.86687 30.5691 9.36235 30.2294 9.64374 29.9053C10.1698 29.3008 10.4329 28.6994 10.4329 28.1011C10.4329 27.5028 10.2341 27.1071 9.83643 26.9138C9.70798 26.8515 9.56116 26.8204 9.396 26.8204ZM18.4525 37.2626C17.9631 36.795 17.5716 36.2093 17.278 35.5051C16.9905 34.7945 16.8467 34.0311 16.8467 33.2146C16.8467 32.3982 16.9263 31.6909 17.0853 31.0926C17.4034 29.9022 17.9601 28.9019 18.7553 28.0917C19.1346 27.6929 19.5567 27.3563 20.0216 27.0821C20.9758 26.515 21.9821 26.2314 23.0404 26.2314C24.1048 26.2314 25.0377 26.5898 25.839 27.3065C26.0959 27.5371 26.3192 27.8019 26.5088 28.1011L27.821 26.6708H30.8306V38.2908H27.821L26.5088 36.3557C25.5056 37.8639 23.9855 38.6212 21.9485 38.6273C21.3857 38.6337 20.7832 38.5213 20.1408 38.2908C19.5047 38.0664 18.9419 37.7235 18.4525 37.2626ZM25.8849 30.1951C25.6647 30.0643 25.4016 29.9988 25.0958 29.9988C24.7899 29.9988 24.4657 30.111 24.1231 30.3353C23.7867 30.5535 23.4839 30.8308 23.2147 31.1674C22.6152 31.9215 22.3155 32.688 22.3155 33.467C22.3155 34.0155 22.4807 34.4019 22.811 34.6263C23.1168 34.8319 23.5818 34.8039 24.2057 34.5421C24.8358 34.2741 25.3955 33.9282 25.8849 33.5044V30.1951ZM41.649 37.4495C40.4867 38.2536 39.2541 38.6553 37.9511 38.6553C36.6541 38.6553 35.599 38.2816 34.7854 37.5335C33.9718 36.7794 33.565 35.7668 33.565 34.4954V29.6342H32.519V26.6708H33.565V23.5297L39.0522 22.9595V26.6708H41.649V29.6342H39.0522V32.5696C39.0522 33.4484 39.2447 34.0872 39.6302 34.486C40.0217 34.8787 40.6944 35.075 41.649 35.075V37.4495ZM46.1632 21.2861C47.0625 21.2861 47.7292 21.4793 48.1635 21.8657C48.5979 22.2459 48.8122 22.732 48.806 23.3241C48.806 23.9162 48.5276 24.4614 47.9711 24.96C47.4206 25.4586 46.6832 25.7079 45.7596 25.7079C44.4629 25.7079 43.6552 25.3091 43.3371 24.5113C43.2456 24.287 43.1997 24.0377 43.1997 23.7634C43.1997 23.4892 43.2637 23.2026 43.3921 22.9034C43.5209 22.6043 43.7133 22.3363 43.9705 22.0994C44.5391 21.5572 45.2703 21.2861 46.1632 21.2861ZM48.65 38.2908H43.3371V26.6708H48.65V38.2908ZM59.5049 37.4495C58.3425 38.2536 57.1099 38.6553 55.807 38.6553C54.5104 38.6553 53.4549 38.2816 52.6416 37.5335C51.828 36.7794 51.4212 35.7668 51.4212 34.4954V29.6342H50.3751V26.6708H51.4212V23.5297L56.9081 22.9595V26.6708H59.5049V29.6342H56.9081V32.5696C56.9081 33.4484 57.1009 34.0872 57.4861 34.486C57.8776 34.8787 58.5506 35.075 59.5049 35.075V37.4495ZM62.4594 37.2626C61.9701 36.795 61.5786 36.2093 61.2849 35.5051C60.9974 34.7945 60.8537 34.0311 60.8537 33.2146C60.8537 32.3982 60.9334 31.6909 61.0924 31.0926C61.4105 29.9022 61.967 28.9019 62.7625 28.0917C63.1415 27.6929 63.5636 27.3563 64.0285 27.0821C64.9827 26.515 65.9891 26.2314 67.0474 26.2314C68.1119 26.2314 69.0446 26.5898 69.846 27.3065C70.1029 27.5371 70.3263 27.8019 70.5159 28.1011L71.8279 26.6708H74.8377V38.2908H71.8279L70.5159 36.3557C69.5127 37.8639 67.9926 38.6212 65.9554 38.6273C65.3927 38.6337 64.7903 38.5213 64.1479 38.2908C63.5117 38.0664 62.949 37.7235 62.4594 37.2626ZM69.892 30.1951C69.6717 30.0643 69.4086 29.9988 69.1027 29.9988C68.7968 29.9988 68.4728 30.111 68.13 30.3353C67.7939 30.5535 67.4908 30.8308 67.2218 31.1674C66.6222 31.9215 66.3225 32.688 66.3225 33.467C66.3225 34.0155 66.4878 34.4019 66.8181 34.6263C67.124 34.8319 67.5889 34.8039 68.2129 34.5421C68.8428 34.2741 69.4027 33.9282 69.892 33.5044V30.1951ZM85.4632 30.1577C84.1053 29.8337 83.1174 29.6716 82.4993 29.6716C82.3222 29.6716 82.1844 29.7121 82.0866 29.7931C81.9947 29.8741 81.9488 29.9645 81.9488 30.0643C81.9488 30.2699 82.1997 30.4787 82.7012 30.6906C83.2089 30.8963 83.6738 31.0988 84.0959 31.2982C84.5181 31.4976 84.8821 31.7407 85.188 32.0274C85.8485 32.6506 86.1791 33.5792 86.1791 34.8132C86.1791 36.0409 85.7416 36.985 84.8668 37.6459C83.9919 38.3064 82.8083 38.6368 81.3158 38.6368C79.8232 38.6368 78.6302 38.4964 77.7373 38.216C77.3458 38.0976 77.0458 37.9575 76.838 37.7955V34.3271C76.9237 34.3333 77.0736 34.3738 77.2877 34.4486C77.5017 34.5234 77.8566 34.6418 78.3518 34.8039C78.8474 34.9597 79.297 35.0376 79.7007 35.0376C80.1106 35.0376 80.3156 34.8849 80.3156 34.5795C80.3156 34.3427 80.1322 34.1121 79.7651 33.8877C79.5998 33.788 79.4132 33.6852 79.2055 33.5792C78.3428 33.1492 77.7251 32.6537 77.3517 32.0929C76.9849 31.5257 76.8012 30.862 76.8012 30.1016C76.8012 28.7492 77.3395 27.7396 78.4162 27.0728C79.3217 26.5118 80.5053 26.2314 81.9672 26.2314C82.9889 26.2314 84.0135 26.3343 85.0411 26.5399C85.2614 26.5835 85.402 26.6147 85.4632 26.6334V30.1577Z" fill="#5482F6"/>
<path d="M71.775 8.33172C72.9763 8.33172 73.95 7.33963 73.95 6.11581C73.95 4.89199 72.9763 3.8999 71.775 3.8999C70.5737 3.8999 69.6 4.89199 69.6 6.11581C69.6 7.33963 70.5737 8.33172 71.775 8.33172Z" fill="#23C197"/>
<path d="M75.69 4.78631C76.8913 4.78631 77.865 3.79422 77.865 2.5704C77.865 1.34659 76.8913 0.354492 75.69 0.354492C74.4887 0.354492 73.515 1.34659 73.515 2.5704C73.515 3.79422 74.4887 4.78631 75.69 4.78631Z" fill="#23C197"/>
<path d="M80.91 4.78631C82.1113 4.78631 83.085 3.79422 83.085 2.5704C83.085 1.34659 82.1113 0.354492 80.91 0.354492C79.7087 0.354492 78.735 1.34659 78.735 2.5704C78.735 3.79422 79.7087 4.78631 80.91 4.78631Z" fill="#23C197"/>
<path d="M84.825 8.33172C86.0263 8.33172 87 7.33963 87 6.11581C87 4.89199 86.0263 3.8999 84.825 3.8999C83.6237 3.8999 82.65 4.89199 82.65 6.11581C82.65 7.33963 83.6237 8.33172 84.825 8.33172Z" fill="#23C197"/>
<path d="M82.9458 10.8667C82.1889 9.96265 81.5538 9.19152 80.7882 8.28742C80.388 7.80879 79.8747 7.33015 79.2657 7.11742C79.17 7.08197 79.0743 7.05538 78.9786 7.03765C78.7611 7.0022 78.5262 7.0022 78.3 7.0022C78.0738 7.0022 77.8389 7.0022 77.6127 7.04652C77.517 7.06424 77.4213 7.09083 77.3256 7.12629C76.7166 7.33902 76.212 7.81765 75.8031 8.29629C75.0462 9.20038 74.4111 9.97152 73.6455 10.8756C72.5058 12.0367 71.1051 13.322 71.3661 15.1213C71.6184 16.0254 72.2535 16.9206 73.3932 17.1777C74.0283 17.3106 76.0554 16.7877 78.213 16.7877H78.3696C80.5272 16.7877 82.5543 17.3017 83.1894 17.1777C84.3291 16.9206 84.9642 16.0165 85.2165 15.1213C85.4862 13.3131 84.0855 12.0279 82.9458 10.8667Z" fill="#23C197"/>
</svg>
